<svg width="1440" height="963" viewBox="0 0 1440 963" fill="none" xmlns="http://www.w3.org/2000/svg">
<g clip-path="url('#clip0_5_258')">
<rect width="1440" height="963" fill="black"></rect>
<g filter="url('#filter0_f_5_258')">
<path d="M552.545 189.865C551.938 188.777 553.763 188.579 554.416 188.942C556.185 189.923 555.762 192.32 554.561 193.482C552.413 195.56 548.789 194.768 546.932 192.637C544.207 189.51 545.32 184.894 548.512 182.632C552.767 179.618 558.895 181.17 561.899 185.246C565.68 190.375 563.807 197.418 558.594 200.715C552.28 204.709 543.572 202.368 539.448 196.333C534.588 189.221 537.237 179.718 544.479 175.399C552.841 170.413 564.149 173.551 569.383 181.55C575.33 190.639 571.902 202.614 562.626 207.948C552.22 213.933 538.304 209.994 531.965 200.029C524.926 188.965 529.136 174.513 540.447 168.166C552.895 161.181 569.423 165.922 576.867 177.855C584.999 190.891 580.005 207.824 566.659 215.182C552.17 223.169 533.027 217.625 524.481 203.724C515.254 188.716 521.031 169.3 536.414 160.933C552.943 151.941 574.703 158.289 584.35 174.159C594.672 191.139 588.112 213.038 570.692 222.415C552.122 232.41 527.745 225.258 516.997 207.42C505.579 188.468 512.924 164.085 532.381 153.699C552.99 142.699 579.986 150.656 591.834 170.463C594.182 174.389 595.884 178.654 596.865 183.054" stroke="white" stroke-width="0.999998"></path>
</g>
<g filter="url('#filter1_f_5_258')">
<path d="M1141.54 390.177C1140.94 389.089 1142.76 388.891 1143.42 389.253C1145.18 390.235 1144.76 392.632 1143.56 393.794C1141.41 395.872 1137.79 395.079 1135.93 392.949C1133.21 389.822 1134.32 385.205 1137.51 382.944C1141.77 379.93 1147.89 381.482 1150.9 385.557C1154.68 390.686 1152.81 397.729 1147.59 401.027C1141.28 405.021 1132.57 402.679 1128.45 396.644C1123.59 389.533 1126.24 380.029 1133.48 375.711C1141.84 370.724 1153.15 373.863 1158.38 381.862C1164.33 390.951 1160.9 402.926 1151.63 408.26C1141.22 414.244 1127.3 410.305 1120.96 400.34C1113.93 389.277 1118.14 374.824 1129.45 368.477C1141.89 361.492 1158.42 366.233 1165.87 378.166C1174 391.202 1169.01 408.135 1155.66 415.493C1141.17 423.481 1122.03 417.937 1113.48 404.036C1104.25 389.027 1110.03 369.612 1125.41 361.244C1141.94 352.253 1163.7 358.601 1173.35 374.47C1183.67 391.45 1177.11 413.35 1159.69 422.726C1141.12 432.722 1116.74 425.57 1106 407.731C1094.58 388.78 1101.92 364.396 1121.38 354.011C1141.99 343.011 1168.99 350.967 1180.83 370.775C1183.18 374.701 1184.88 378.965 1185.87 383.366" stroke="white" stroke-width="0.999998"></path>
</g>
<g filter="url('#filter2_f_5_258')">
<path d="M444.545 682.651C443.938 681.563 445.763 681.365 446.416 681.727C448.185 682.708 447.762 685.105 446.561 686.267C444.413 688.345 440.789 687.553 438.932 685.422C436.207 682.296 437.32 677.679 440.512 675.417C444.767 672.403 450.895 673.955 453.899 678.031C457.68 683.16 455.807 690.203 450.594 693.5C444.28 697.494 435.572 695.153 431.448 689.118C426.588 682.006 429.237 672.503 436.479 668.184C444.841 663.198 456.149 666.337 461.383 674.335C467.33 683.424 463.902 695.399 454.626 700.734C444.22 706.718 430.304 702.779 423.965 692.814C416.926 681.751 421.136 667.298 432.447 660.951C444.895 653.966 461.423 658.707 468.867 670.64C476.999 683.676 472.005 700.609 458.659 707.967C444.17 715.955 425.027 710.41 416.481 696.509C407.254 681.501 413.031 662.085 428.414 653.718C444.943 644.727 466.703 651.075 476.35 666.944C486.672 683.924 480.112 705.823 462.692 715.2C444.122 725.195 419.745 718.043 408.997 700.205C397.579 681.254 404.924 656.87 424.381 646.485C444.99 635.485 471.986 643.441 483.834 663.248C486.182 667.175 487.884 671.439 488.865 675.84" stroke="white" stroke-width="0.999998"></path>
</g>
<g filter="url('#filter3_f_5_258')">
<path d="M675.545 483.28C674.938 482.192 676.763 481.993 677.416 482.356C679.185 483.337 678.762 485.734 677.561 486.896C675.413 488.974 671.789 488.182 669.932 486.051C667.207 482.925 668.32 478.308 671.512 476.046C675.767 473.032 681.895 474.584 684.899 478.66C688.68 483.789 686.807 490.832 681.594 494.129C675.28 498.123 666.572 495.782 662.448 489.747C657.588 482.635 660.237 473.132 667.479 468.813C675.841 463.827 687.149 466.965 692.383 474.964C698.33 484.053 694.902 496.028 685.626 501.363C675.22 507.347 661.304 503.408 654.965 493.443C647.926 482.379 652.136 467.927 663.447 461.58C675.895 454.595 692.423 459.336 699.867 471.269C707.999 484.305 703.005 501.238 689.659 508.596C675.17 516.583 656.027 511.039 647.481 497.138C638.254 482.13 644.031 462.714 659.414 454.347C675.943 445.356 697.703 451.704 707.35 467.573C717.672 484.553 711.112 506.452 693.692 515.829C675.122 525.824 650.745 518.672 639.997 500.834C628.579 481.883 635.924 457.499 655.381 447.114C675.99 436.114 702.986 444.07 714.834 463.877C717.182 467.803 718.884 472.068 719.865 476.468" stroke="white" stroke-width="0.999998"></path>
</g>
<g filter="url('#filter4_f_5_258')">
<path d="M289.724 113.543C290.394 115.854 286.804 115.518 285.716 114.573C282.768 112.011 284.665 107.606 287.495 105.861C292.557 102.74 299.15 105.666 301.746 110.453C305.556 117.478 301.328 125.843 294.181 128.906C284.654 132.988 273.603 127.636 269.687 118.693C264.759 107.439 271.545 94.7463 283.038 90.4981C296.959 85.353 312.6 93.2185 317.775 106.333C323.874 121.788 314.487 138.867 298.637 144.269C280.338 150.506 260.072 140.104 253.657 122.812C246.369 103.164 258.372 81.678 278.581 75.135C301.253 67.7946 326.16 80.7413 333.805 102.213C342.291 126.052 327.666 151.954 303.094 159.632C276.052 168.082 246.497 152.586 237.628 126.932C227.938 98.9061 245.19 68.5809 274.124 59.7718C305.536 50.2086 339.743 68.2578 349.834 98.0936C360.73 130.307 340.85 165.057 307.551 174.995C271.771 185.674 232.91 165.071 221.598 131.052C209.495 94.6525 232.004 55.4741 269.668 44.4087C309.815 32.6132 353.333 55.772 365.864 93.9738C379.176 134.559 354.036 178.167 312.008 190.359C267.493 203.272 219.317 177.557 205.569 135.172C202.844 126.771 201.513 117.977 201.625 109.206" stroke="white" stroke-width="0.999998"></path>
</g>
<g filter="url('#filter5_f_5_258')">
<path d="M910.879 672.553C909.696 670.432 913.279 670.034 914.557 670.737C918.023 672.643 917.176 677.328 914.811 679.605C910.581 683.677 903.474 682.151 899.844 678.001C894.518 671.911 896.734 662.886 903.015 658.45C911.385 652.537 923.402 655.531 929.27 663.473C936.656 673.468 932.93 687.235 922.676 693.708C910.257 701.547 893.183 697.027 885.131 685.265C875.642 671.404 880.906 652.827 895.15 644.347C911.596 634.557 933.766 640.618 943.983 656.209C955.593 673.925 948.782 697.335 930.54 707.811C910.076 719.563 882.792 711.954 870.418 692.529C856.681 670.964 865.044 642.71 887.286 630.244C911.765 616.525 944.17 625.684 958.697 648.945C974.566 674.357 964.649 707.461 938.405 721.914C909.913 737.603 872.381 726.891 855.705 699.793C837.701 670.536 849.173 632.579 879.421 616.141C911.924 598.479 954.586 610.745 973.41 641.681C993.55 674.783 980.522 717.596 946.269 736.017C909.756 755.653 861.962 741.833 840.992 707.057C818.714 670.112 833.298 622.441 871.557 602.038C912.08 580.428 965.007 595.802 988.123 634.417C992.704 642.071 996.014 650.39 997.909 658.979" stroke="white" stroke-width="0.999998"></path>
</g>
<g filter="url('#filter6_f_5_258')">
<path d="M1196.88 645.281C1195.7 643.159 1199.28 642.761 1200.56 643.465C1204.02 645.371 1203.18 650.056 1200.81 652.332C1196.58 656.404 1189.47 654.879 1185.84 650.729C1180.52 644.638 1182.73 635.614 1189.01 631.178C1197.39 625.265 1209.4 628.259 1215.27 636.201C1222.66 646.195 1218.93 659.963 1208.68 666.435C1196.26 674.274 1179.18 669.755 1171.13 657.993C1161.64 644.132 1166.91 625.555 1181.15 617.075C1197.6 607.285 1219.77 613.346 1229.98 628.937C1241.59 646.652 1234.78 670.063 1216.54 680.538C1196.08 692.29 1168.79 684.682 1156.42 665.257C1142.68 643.692 1151.04 615.438 1173.29 602.972C1197.76 589.252 1230.17 598.412 1244.7 621.673C1260.57 647.085 1250.65 680.189 1224.4 694.641C1195.91 710.331 1158.38 699.619 1141.71 672.521C1123.7 643.263 1135.17 605.306 1165.42 588.869C1197.92 571.207 1240.59 583.472 1259.41 614.409C1279.55 647.51 1266.52 690.323 1232.27 708.744C1195.76 728.38 1147.96 714.56 1126.99 679.785C1104.71 642.839 1119.3 595.169 1157.56 574.766C1198.08 553.155 1251.01 568.53 1274.12 607.145C1278.7 614.799 1282.01 623.118 1283.91 631.706" stroke="white" stroke-width="0.999998"></path>
</g>
<g filter="url('#filter7_f_5_258')">
<path d="M963.724 207.586C964.394 209.897 960.804 209.561 959.716 208.616C956.768 206.054 958.665 201.649 961.495 199.904C966.557 196.782 973.15 199.709 975.746 204.496C979.556 211.521 975.328 219.886 968.181 222.949C958.654 227.031 947.603 221.679 943.687 212.736C938.759 201.482 945.545 188.789 957.038 184.541C970.959 179.396 986.6 187.262 991.775 200.376C997.874 215.831 988.487 232.91 972.637 238.312C954.338 244.549 934.072 234.147 927.657 216.855C920.369 197.207 932.372 175.721 952.581 169.178C975.253 161.838 1000.16 174.784 1007.8 196.256C1016.29 220.094 1001.67 245.997 977.094 253.675C950.052 262.125 920.497 246.629 911.628 220.975C901.938 192.949 919.19 162.624 948.124 153.815C979.536 144.252 1013.74 162.301 1023.83 192.137C1034.73 224.35 1014.85 259.1 981.551 269.038C945.771 279.717 906.91 259.114 895.598 225.095C883.495 188.695 906.004 149.517 943.668 138.452C983.815 126.656 1027.33 149.815 1039.86 188.017C1053.18 228.602 1028.04 272.21 986.008 284.402C941.493 297.315 893.317 271.6 879.569 229.215C876.844 220.814 875.513 212.02 875.625 203.249" stroke="white" stroke-width="0.999998"></path>
</g>
<g filter="url('#filter8_f_5_258')">
<path d="M456.724 234.858C457.394 237.169 453.804 236.834 452.716 235.888C449.768 233.326 451.665 228.922 454.495 227.177C459.557 224.055 466.15 226.981 468.746 231.768C472.556 238.793 468.328 247.158 461.181 250.221C451.654 254.304 440.603 248.951 436.687 240.008C431.759 228.754 438.545 216.062 450.038 211.813C463.959 206.668 479.6 214.534 484.775 227.648C490.874 243.104 481.487 260.183 465.637 265.584C447.338 271.821 427.072 261.42 420.657 244.128C413.369 224.479 425.372 202.993 445.581 196.45C468.253 189.11 493.16 202.057 500.805 223.529C509.291 247.367 494.666 273.27 470.094 280.948C443.052 289.398 413.497 273.901 404.628 248.247C394.938 220.221 412.19 189.896 441.124 181.087C472.536 171.524 506.743 189.573 516.834 219.409C527.73 251.622 507.85 286.373 474.551 296.311C438.771 306.989 399.91 286.386 388.598 252.367C376.495 215.968 399.004 176.789 436.668 165.724C476.815 153.928 520.333 177.087 532.864 215.289C546.176 255.874 521.036 299.482 479.008 311.674C434.493 324.587 386.317 298.872 372.569 256.487C369.844 248.086 368.513 239.292 368.625 230.521" stroke="white" stroke-width="0.999998"></path>
</g>
<g filter="url('#filter9_f_5_258')">
<path d="M290.879 880.388C289.696 878.267 293.279 877.869 294.557 878.572C298.023 880.478 297.176 885.163 294.811 887.44C290.581 891.512 283.474 889.986 279.844 885.836C274.517 879.746 276.734 870.721 283.015 866.285C291.385 860.372 303.402 863.366 309.27 871.308C316.656 881.303 312.93 895.07 302.676 901.543C290.257 909.382 273.183 904.862 265.131 893.1C255.642 879.239 260.906 860.662 275.15 852.182C291.596 842.392 313.766 848.453 323.983 864.044C335.593 881.76 328.782 905.17 310.54 915.646C290.076 927.398 262.792 919.789 250.418 900.364C236.681 878.799 245.043 850.545 267.286 838.079C291.765 824.36 324.17 833.519 338.696 856.78C354.566 882.192 344.649 915.296 318.405 929.749C289.913 945.438 252.381 934.726 235.705 907.628C217.701 878.371 229.173 840.414 259.421 823.976C291.924 806.314 334.586 818.58 353.409 849.516C373.55 882.618 360.522 925.431 326.269 943.852C289.756 963.488 241.962 949.668 220.992 914.892C198.714 877.947 213.298 830.276 251.557 809.873C292.08 788.263 345.007 803.637 368.123 842.252C372.704 849.906 376.014 858.225 377.909 866.814" stroke="white" stroke-width="0.999998"></path>
</g>
<g filter="url('#filter10_f_5_258')">
<path d="M57.7236 442.693C58.3939 445.004 54.8043 444.669 53.7163 443.723C50.7678 441.161 52.6652 436.757 55.4952 435.012C60.5575 431.89 67.1495 434.817 69.7458 439.603C73.5559 446.628 69.3282 454.994 62.1805 458.056C52.6538 462.139 41.6029 456.786 37.6867 447.843C32.7587 436.589 39.5446 423.897 51.0383 419.649C64.9586 414.503 80.6 422.369 85.7753 435.484C91.8742 450.939 82.487 468.018 66.6374 473.42C48.3385 479.656 28.0716 469.255 21.6572 451.963C14.3688 432.314 26.3718 410.828 46.5814 404.285C69.2535 396.945 94.1604 409.892 101.805 431.364C110.291 455.202 95.666 481.105 71.0944 488.783C44.0517 497.233 14.4972 481.736 5.62772 456.083C-4.062 428.056 13.1896 397.731 42.1245 388.922C73.5363 379.359 107.743 397.408 117.834 427.244C128.73 459.457 108.85 494.208 75.5513 504.146C39.7711 514.824 0.909927 494.221 -10.4018 460.202C-22.5052 423.803 0.00447819 384.624 37.6676 373.559C77.8155 361.764 121.333 384.922 133.864 423.124C147.176 463.71 122.036 507.317 80.0082 519.509C35.4929 532.422 -12.6828 506.707 -26.4313 464.322C-29.1564 455.921 -30.4874 447.127 -30.3749 438.356" stroke="white" stroke-width="0.999998"></path>
</g>
<g filter="url('#filter11_f_5_258')">
<path d="M565.879 365.033C564.696 362.911 568.279 362.513 569.557 363.217C573.023 365.123 572.176 369.808 569.811 372.084C565.581 376.156 558.474 374.631 554.844 370.481C549.518 364.39 551.734 355.366 558.015 350.93C566.385 345.017 578.402 348.01 584.27 355.953C591.656 365.947 587.93 379.715 577.676 386.187C565.257 394.026 548.183 389.507 540.131 377.745C530.642 363.884 535.906 345.307 550.15 336.827C566.596 327.036 588.766 333.098 598.983 348.689C610.593 366.404 603.782 389.814 585.54 400.29C565.076 412.042 537.792 404.434 525.418 385.009C511.681 363.444 520.044 335.19 542.286 322.724C566.765 309.004 599.17 318.164 613.697 341.425C629.566 366.837 619.649 399.941 593.405 414.393C564.913 430.083 527.381 419.371 510.705 392.273C492.701 363.015 504.173 325.058 534.421 308.621C566.924 290.958 609.586 303.224 628.41 334.161C648.55 367.262 635.522 410.075 601.269 428.496C564.756 448.132 516.962 434.312 495.992 399.537C473.714 362.591 488.298 314.921 526.557 294.518C567.08 272.907 620.007 288.282 643.123 326.897C647.704 334.551 651.014 342.87 652.909 351.458" stroke="white" stroke-width="0.999998"></path>
</g>
<g filter="url('#filter12_f_5_258')">
<path d="M510.213 516.167C510.947 518.7 507.031 518.328 505.843 517.291C502.623 514.48 504.687 509.658 507.771 507.749C513.289 504.336 520.484 507.55 523.323 512.797C527.489 520.497 522.889 529.656 515.096 533.003C504.71 537.463 492.647 531.586 488.363 521.784C482.972 509.45 490.357 495.553 502.888 490.914C518.066 485.294 535.139 493.93 540.803 508.303C547.477 525.242 537.261 543.94 519.979 549.839C500.026 556.649 477.904 545.229 470.883 526.278C462.906 504.744 475.969 481.221 498.005 474.078C522.727 466.064 549.914 480.278 558.282 503.81C567.573 529.935 551.655 558.293 524.862 566.674C495.375 575.898 463.114 558.886 453.403 530.771C442.795 500.057 461.571 466.857 493.122 457.242C527.374 446.804 564.713 466.619 575.762 499.316C587.692 534.619 566.055 572.664 529.745 583.51C490.73 595.165 448.31 572.546 435.924 535.265C422.67 495.375 447.17 452.482 488.239 440.406C532.018 427.534 579.52 452.957 593.242 494.823C607.82 539.3 580.457 587.041 534.628 600.346C486.087 614.438 433.5 586.208 418.444 539.759C415.459 530.552 413.995 520.916 414.106 511.308" stroke="white" stroke-width="0.999998"></path>
</g>
<g filter="url('#filter13_f_5_258')">
<path d="M951.213 452.922C951.947 455.454 948.031 455.083 946.843 454.045C943.623 451.235 945.687 446.413 948.771 444.504C954.289 441.091 961.484 444.305 964.323 449.552C968.489 457.252 963.889 466.411 956.096 469.758C945.71 474.218 933.647 468.341 929.363 458.539C923.972 446.204 931.357 432.308 943.888 427.668C959.066 422.049 976.139 430.685 981.803 445.058C988.477 461.997 978.261 480.695 960.979 486.593C941.026 493.403 918.904 481.984 911.883 463.033C903.906 441.499 916.969 417.976 939.005 410.833C963.727 402.819 990.914 417.033 999.282 440.565C1008.57 466.69 992.655 495.048 965.862 503.429C936.375 512.653 904.114 495.64 894.403 467.526C883.795 436.812 902.571 403.612 934.122 393.997C968.374 383.559 1005.71 403.374 1016.76 436.071C1028.69 471.374 1007.05 509.419 970.745 520.265C931.73 531.919 889.31 509.301 876.924 472.02C863.67 432.129 888.17 389.237 929.239 377.161C973.018 364.289 1020.52 389.712 1034.24 431.577C1048.82 476.055 1021.46 523.796 975.628 537.101C927.087 551.193 874.5 522.963 859.444 476.513C856.459 467.306 854.995 457.671 855.106 448.063" stroke="white" stroke-width="0.999998"></path>
</g>
<g filter="url('#filter14_f_5_258')">
<path d="M1123.54 280.147C1122.94 279.059 1124.76 278.861 1125.42 279.223C1127.18 280.204 1126.76 282.602 1125.56 283.763C1123.41 285.842 1119.79 285.049 1117.93 282.918C1115.21 279.792 1116.32 275.175 1119.51 272.914C1123.77 269.9 1129.89 271.451 1132.9 275.527C1136.68 280.656 1134.81 287.699 1129.59 290.997C1123.28 294.99 1114.57 292.649 1110.45 286.614C1105.59 279.502 1108.24 269.999 1115.48 265.68C1123.84 260.694 1135.15 263.833 1140.38 271.831C1146.33 280.92 1142.9 292.895 1133.63 298.23C1123.22 304.214 1109.3 300.275 1102.96 290.31C1095.93 279.247 1100.14 264.794 1111.45 258.447C1123.89 251.462 1140.42 256.203 1147.87 268.136C1156 281.172 1151.01 298.105 1137.66 305.463C1123.17 313.451 1104.03 307.906 1095.48 294.006C1086.25 278.997 1092.03 259.582 1107.41 251.214C1123.94 242.223 1145.7 248.571 1155.35 264.44C1165.67 281.42 1159.11 303.319 1141.69 312.696C1123.12 322.691 1098.74 315.54 1088 297.701C1076.58 278.75 1083.92 254.366 1103.38 243.981C1123.99 232.981 1150.99 240.937 1162.83 260.744C1165.18 264.671 1166.88 268.935 1167.87 273.336" stroke="white" stroke-width="0.999998"></path>
</g>
<g filter="url('#filter15_f_5_258')">
<path d="M452.545 862.273C451.938 861.185 453.763 860.987 454.416 861.349C456.185 862.33 455.762 864.728 454.561 865.889C452.413 867.968 448.789 867.175 446.932 865.045C444.207 861.918 445.32 857.301 448.512 855.04C452.767 852.026 458.895 853.577 461.899 857.653C465.68 862.782 463.807 869.825 458.594 873.123C452.28 877.116 443.572 874.775 439.448 868.74C434.588 861.628 437.237 852.125 444.479 847.806C452.841 842.82 464.149 845.959 469.383 853.957C475.33 863.046 471.902 875.021 462.626 880.356C452.22 886.34 438.304 882.401 431.965 872.436C424.926 861.373 429.136 846.92 440.447 840.573C452.895 833.588 469.423 838.329 476.867 850.262C484.999 863.298 480.005 880.231 466.659 887.589C452.17 895.577 433.027 890.032 424.481 876.132C415.254 861.123 421.031 841.708 436.414 833.34C452.943 824.349 474.703 830.697 484.35 846.566C494.672 863.546 488.112 885.445 470.692 894.822C452.122 904.817 427.745 897.666 416.997 879.827C405.579 860.876 412.924 836.492 432.381 826.107C452.99 815.107 479.986 823.063 491.834 842.87C494.182 846.797 495.884 851.061 496.865 855.462" stroke="white" stroke-width="0.999998"></path>
</g>
<g filter="url('#filter16_f_5_258')">
<path d="M877.042 890.733C875.858 888.612 879.445 888.213 880.726 888.917C884.196 890.823 883.349 895.508 880.98 897.784C876.744 901.857 869.626 900.331 865.991 896.181C860.656 890.091 862.876 881.066 869.166 876.63C877.549 870.717 889.584 873.711 895.461 881.653C902.857 891.647 899.126 905.415 888.857 911.887C876.419 919.726 859.32 915.207 851.256 903.445C841.753 889.584 847.024 871.007 861.29 862.527C877.76 852.737 899.964 858.798 910.196 874.389C921.823 892.104 915.002 915.515 896.733 925.99C876.238 937.742 848.913 930.134 836.521 910.709C822.763 889.144 831.138 860.89 853.413 848.424C877.929 834.705 910.383 843.864 924.931 867.125C940.825 892.537 930.893 925.641 904.609 940.093C876.075 955.783 838.486 945.071 821.786 917.973C803.754 888.716 815.243 850.758 845.537 834.321C878.089 816.659 920.815 828.924 939.666 859.861C959.837 892.963 946.79 935.776 912.485 954.196C875.918 973.832 828.052 960.012 807.051 925.237C784.739 888.292 799.345 840.621 837.661 820.218C878.245 798.607 931.251 813.982 954.401 852.597C958.99 860.251 962.305 868.57 964.203 877.159" stroke="white" stroke-width="0.999998"></path>
</g>
<g filter="url('#filter17_f_5_258')">
<path d="M1052.03 881.52C1052.7 883.831 1049.11 883.495 1048.02 882.55C1045.07 879.988 1046.97 875.583 1049.8 873.838C1054.87 870.716 1061.47 873.643 1064.07 878.43C1067.89 885.455 1063.65 893.82 1056.5 896.883C1046.96 900.965 1035.89 895.612 1031.97 886.669C1027.03 875.416 1033.83 862.723 1045.34 858.475C1059.28 853.33 1074.94 861.195 1080.13 874.31C1086.23 889.765 1076.83 906.844 1060.96 912.246C1042.63 918.483 1022.34 908.081 1015.91 890.789C1008.61 871.141 1020.63 849.655 1040.87 843.112C1063.58 835.771 1088.52 848.718 1096.18 870.19C1104.68 894.028 1090.03 919.931 1065.42 927.609C1038.34 936.059 1008.74 920.563 999.859 894.909C990.155 866.883 1007.43 836.558 1036.41 827.749C1067.87 818.185 1102.13 836.235 1112.23 866.07C1123.15 898.284 1103.24 933.034 1069.89 942.972C1034.05 953.651 995.134 933.047 983.805 899.029C971.684 862.629 994.227 823.451 1031.95 812.385C1072.15 800.59 1115.74 823.749 1128.29 861.951C1141.62 902.536 1116.44 946.144 1074.35 958.335C1029.77 971.249 981.521 945.534 967.752 903.149C965.022 894.747 963.69 885.954 963.802 877.183" stroke="white" stroke-width="0.999998"></path>
</g>
<g filter="url('#filter18_f_5_258')">
<path d="M202.856 628.155C200.435 623.81 207.553 623.1 210.119 624.565C217.076 628.536 215.538 638.037 210.903 642.599C202.611 650.76 188.419 647.462 181.065 638.925C170.273 626.396 174.402 608.112 186.763 599.267C203.237 587.478 227.245 593.897 239.174 610.205C254.185 630.728 247.2 658.613 226.996 671.487C202.526 687.079 168.404 677.418 152.011 653.285C132.692 624.844 142.586 587.223 170.669 570.379C203.092 550.932 247.406 563.867 268.228 595.846C291.887 632.182 279.065 679.584 243.089 700.375C202.73 723.7 148.191 707.476 122.957 667.644C94.9417 623.423 110.7 566.217 154.576 541.491C202.864 514.278 267.644 533.796 297.282 581.486C329.661 633.586 310.962 700.609 259.183 729.263C202.971 760.371 127.939 737.554 93.9026 682.004C57.1545 622.027 78.7968 545.181 138.482 512.603C202.616 477.597 287.906 503.713 326.336 567.126C367.457 634.977 342.87 721.652 275.276 758.151C203.223 797.059 107.671 767.64 64.8483 696.364C19.3533 620.639 46.8866 524.133 122.389 483.715C202.36 440.904 308.177 473.625 355.391 552.767C364.749 568.453 371.597 585.457 375.637 602.97" stroke="white" stroke-width="0.999998"></path>
</g>
<g filter="url('#filter19_f_5_258')">
<path d="M1143.16 723.457C1144.76 728.965 1135.74 728.278 1133.04 726.05C1125.72 720.014 1130.65 709.413 1137.83 705.145C1150.68 697.511 1167.16 704.303 1173.52 715.675C1182.85 732.364 1171.91 752.519 1153.81 760.08C1129.7 770.156 1102.09 757.702 1092.57 736.426C1080.58 709.653 1098.11 679.059 1127.18 668.522C1162.39 655.761 1201.45 674.08 1213.99 705.299C1228.77 742.09 1204.53 783.265 1164.47 796.703C1118.2 812.217 1067.6 787.978 1052.09 746.802C1034.47 700.015 1065.45 648.208 1116.53 631.899C1173.83 613.602 1236.02 643.784 1254.47 694.924C1274.95 751.699 1237.21 814.16 1175.12 833.326C1106.78 854.419 1033 818.285 1011.62 757.177C988.261 690.418 1032.76 617.289 1105.88 595.276C1185.25 571.378 1270.64 613.471 1294.94 684.548C1321.18 761.289 1269.9 845.093 1185.77 869.949C1095.37 896.657 998.36 848.601 971.142 767.553C942.019 680.833 1000.07 586.347 1095.22 558.653C1196.65 529.131 1305.28 583.153 1335.42 674.172C1367.43 770.871 1302.6 876.041 1196.42 906.572C1083.97 938.909 963.71 878.92 930.667 777.929C924.117 757.911 921.089 736.909 921.692 715.914" stroke="white" stroke-width="0.999998"></path>
</g>
<g filter="url('#filter20_f_5_258')">
<path d="M1037.16 164.841C1038.76 170.35 1029.74 169.663 1027.04 167.435C1019.72 161.399 1024.65 150.797 1031.83 146.53C1044.68 138.896 1061.16 145.688 1067.52 157.06C1076.85 173.748 1065.91 193.904 1047.81 201.464C1023.7 211.541 996.093 199.087 986.567 177.811C974.579 151.037 992.112 120.443 1021.18 109.907C1056.39 97.1454 1095.45 115.465 1107.99 146.684C1122.77 183.474 1098.53 224.649 1058.47 238.087C1012.2 253.602 961.598 229.363 946.092 188.186C928.472 141.399 959.45 89.5932 1010.53 73.2838C1067.83 54.987 1130.02 85.1682 1148.47 136.308C1168.95 193.084 1131.21 255.545 1069.12 274.71C1000.78 295.804 926.995 259.67 905.617 198.562C882.261 131.803 926.765 58.6742 999.876 36.6607C1079.25 12.7628 1164.64 54.8557 1188.94 125.933C1215.18 202.673 1163.9 286.478 1079.77 311.333C989.371 338.041 892.36 289.986 865.142 208.938C836.019 122.217 894.073 27.7321 989.223 0.0377255C1090.65 -29.4838 1199.28 24.5377 1229.42 115.557C1261.43 212.256 1196.6 317.426 1090.42 347.956C977.968 380.294 857.71 320.305 824.667 219.313C818.117 199.295 815.089 178.293 815.691 157.299" stroke="white" stroke-width="0.999998"></path>
</g>
<path d="M119.826 229.41C117.293 229.165 118.919 226.137 120.249 225.523C123.853 223.86 127.537 227.111 128.249 230.223C129.521 235.789 124.242 240.517 118.559 241.07C110.218 241.881 103.444 235.157 102.981 227.783C102.365 217.955 111.657 210.19 121.939 209.977C134.877 209.709 145.022 220.236 145.094 231.849C145.181 245.915 131.742 256.802 116.869 256.616C99.3412 256.397 85.7833 242.008 86.1366 226.157C86.5445 207.857 104.165 193.826 123.629 194.43C145.744 195.117 162.731 213.389 161.938 233.476C161.049 256.01 139.232 273.194 115.179 272.163C88.4757 271.017 68.0529 248.853 69.2918 224.531C70.6552 197.762 96.6764 177.42 125.318 178.884C156.609 180.483 180.472 206.545 178.783 235.102C176.949 266.104 146.72 289.608 113.489 287.709C77.6105 285.659 50.3051 255.697 52.4469 222.904C54.7485 187.668 89.1889 161.002 127.008 163.337C167.475 165.837 198.224 199.701 195.628 236.729C192.86 276.199 154.207 306.029 111.799 303.255C66.7452 300.308 32.5502 262.54 35.6021 221.278C38.8347 177.573 81.7019 144.578 128.698 147.791C138.014 148.428 147.216 150.429 155.875 153.689" stroke="white" stroke-opacity="0.52" stroke-width="0.999998"></path>
<path d="M244.142 158.75C244.775 161.07 241.192 160.684 240.119 159.723C237.212 157.119 239.18 152.742 242.038 151.038C247.15 147.988 253.694 151.008 256.213 155.832C259.91 162.91 255.548 171.214 248.352 174.175C238.76 178.121 227.797 172.612 224.025 163.614C219.279 152.291 226.268 139.697 237.829 135.613C251.83 130.666 267.343 138.754 272.307 151.94C278.156 167.481 268.495 184.424 252.561 189.6C234.164 195.575 214.066 184.886 207.931 167.505C200.96 147.755 213.307 126.442 233.62 120.188C256.407 113.171 281.103 126.471 288.401 148.049C296.503 172.005 281.462 197.697 256.77 205.024C229.594 213.089 200.293 197.173 191.837 171.396C182.599 143.235 200.337 113.159 229.41 104.763C260.973 95.648 294.885 114.182 304.495 144.158C314.871 176.523 294.434 210.986 260.979 220.449C225.031 230.617 186.506 209.463 175.743 175.287C164.227 138.72 187.364 99.8663 225.201 89.3382C265.535 78.1155 308.675 101.891 320.589 140.267C333.247 181.037 307.407 224.282 265.188 235.874C220.47 248.152 172.714 221.755 159.649 179.179C157.059 170.739 155.87 161.928 156.124 153.159" stroke="white" stroke-opacity="0.52" stroke-width="0.999998"></path>
<path d="M101.024 88.6915C102.41 86.6818 104.536 89.4228 104.511 90.8157C104.443 94.5906 99.6869 96.1941 96.4175 95.3721C90.5694 93.9016 88.4983 87.3286 90.5644 82.3187C93.5966 74.9664 103.047 72.3581 110.238 75.3303C119.822 79.2918 122.94 90.6082 118.457 99.3128C112.816 110.267 98.2304 113.964 87.2042 108.733C73.85 102.398 69.6664 86.1886 76.6181 73.8217C84.8104 59.2477 104.608 54.4525 119.451 61.9691C136.588 70.6474 141.842 91.7907 132.403 107.81C121.679 126.012 96.6437 131.909 77.9909 122.094C57.0652 111.084 50.7377 84.9912 62.6718 65.3246C75.9208 43.491 106.205 36.4907 128.664 48.608C153.382 61.9438 160.783 92.9952 146.35 116.307C130.581 141.774 95.0403 149.879 68.7775 135.456C40.2664 119.797 31.7895 83.7826 48.7254 56.8276C67.0108 27.7248 107.812 18.5148 137.878 35.2468C170.183 53.2256 179.736 94.2064 160.296 124.804C139.496 157.543 93.4313 167.858 59.5642 148.817C23.4627 128.519 12.8341 82.5698 34.7791 48.3306C58.0933 11.9549 109.423 0.533361 147.091 21.8856C186.989 44.5016 198.693 95.4204 174.242 133.301C169.396 140.809 163.309 147.601 156.279 153.366" stroke="white" stroke-opacity="0.52" stroke-width="0.999998"></path>
<path d="M1325.83 491.79C1323.29 491.545 1324.92 488.517 1326.25 487.903C1329.85 486.24 1333.54 489.491 1334.25 492.603C1335.52 498.169 1330.24 502.897 1324.56 503.45C1316.22 504.26 1309.44 497.537 1308.98 490.163C1308.37 480.335 1317.66 472.569 1327.94 472.357C1340.88 472.089 1351.02 482.616 1351.09 494.229C1351.18 508.295 1337.74 519.182 1322.87 518.996C1305.34 518.777 1291.78 504.387 1292.14 488.537C1292.54 470.237 1310.17 456.206 1329.63 456.81C1351.74 457.497 1368.73 475.769 1367.94 495.856C1367.05 518.39 1345.23 535.574 1321.18 534.542C1294.48 533.397 1274.05 511.233 1275.29 486.91C1276.66 460.142 1302.68 439.8 1331.32 441.264C1362.61 442.863 1386.47 468.925 1384.78 497.482C1382.95 528.484 1352.72 551.988 1319.49 550.089C1283.61 548.039 1256.31 518.076 1258.45 485.284C1260.75 450.048 1295.19 423.382 1333.01 425.717C1373.47 428.217 1404.22 462.081 1401.63 499.109C1398.86 538.579 1360.21 568.409 1317.8 565.635C1272.75 562.688 1238.55 524.92 1241.6 483.658C1244.83 439.953 1287.7 406.958 1334.7 410.171C1344.01 410.808 1353.22 412.809 1361.88 416.068" stroke="white" stroke-opacity="0.31" stroke-width="0.999998"></path>
<path d="M1450.14 421.13C1450.78 423.45 1447.19 423.063 1446.12 422.103C1443.21 419.499 1445.18 415.122 1448.04 413.417C1453.15 410.368 1459.69 413.388 1462.21 418.211C1465.91 425.29 1461.55 433.594 1454.35 436.555C1444.76 440.501 1433.8 434.991 1430.02 425.994C1425.28 414.671 1432.27 402.077 1443.83 397.993C1457.83 393.046 1473.34 401.133 1478.31 414.32C1484.16 429.86 1474.5 446.804 1458.56 451.979C1440.16 457.955 1420.07 447.266 1413.93 429.885C1406.96 410.135 1419.31 388.822 1439.62 382.568C1462.41 375.551 1487.1 388.851 1494.4 410.429C1502.5 434.385 1487.46 460.077 1462.77 467.404C1435.59 475.468 1406.29 459.553 1397.84 433.776C1388.6 405.615 1406.34 375.539 1435.41 367.143C1466.97 358.028 1500.88 376.562 1510.49 406.538C1520.87 438.902 1500.43 473.366 1466.98 482.829C1431.03 492.997 1392.51 471.843 1381.74 437.667C1370.23 401.1 1393.36 362.246 1431.2 351.718C1471.53 340.495 1514.67 364.271 1526.59 402.647C1539.25 443.417 1513.41 486.662 1471.19 498.254C1426.47 510.532 1378.71 484.134 1365.65 441.558C1363.06 433.119 1361.87 424.308 1362.12 415.539" stroke="white" stroke-opacity="0.31" stroke-width="0.999998"></path>
<path d="M1307.02 351.071C1308.41 349.062 1310.54 351.803 1310.51 353.196C1310.44 356.97 1305.69 358.574 1302.42 357.752C1296.57 356.281 1294.5 349.709 1296.56 344.699C1299.6 337.346 1309.05 334.738 1316.24 337.71C1325.82 341.672 1328.94 352.988 1324.46 361.693C1318.82 372.646 1304.23 376.344 1293.2 371.113C1279.85 364.778 1275.67 348.568 1282.62 336.202C1290.81 321.628 1310.61 316.832 1325.45 324.349C1342.59 333.027 1347.84 354.171 1338.4 370.19C1327.68 388.392 1302.64 394.288 1283.99 384.474C1263.07 373.464 1256.74 347.371 1268.67 327.705C1281.92 305.871 1312.21 298.871 1334.66 310.988C1359.38 324.324 1366.78 355.375 1352.35 378.687C1336.58 404.154 1301.04 412.259 1274.78 397.835C1246.27 382.177 1237.79 346.163 1254.73 319.207C1273.01 290.105 1313.81 280.895 1343.88 297.627C1376.18 315.605 1385.74 356.586 1366.3 387.184C1345.5 419.923 1299.43 430.238 1265.56 411.197C1229.46 390.899 1218.83 344.95 1240.78 310.71C1264.09 274.335 1315.42 262.913 1353.09 284.265C1392.99 306.882 1404.69 357.8 1380.24 395.681C1375.4 403.189 1369.31 409.981 1362.28 415.746" stroke="white" stroke-opacity="0.31" stroke-width="0.999998"></path>
<path d="M638.83 206.551C637.472 204.525 641.01 203.861 642.344 204.467C645.959 206.108 645.51 210.842 643.345 213.287C639.471 217.662 632.258 216.672 628.29 212.806C622.466 207.132 623.914 197.971 629.801 193.08C637.646 186.561 649.877 188.648 656.397 196.128C664.603 205.54 662.05 219.542 652.374 226.759C640.656 235.5 623.255 232.269 614.236 221.145C603.607 208.036 607.287 189.124 620.771 179.608C636.339 168.622 658.951 173.009 670.451 187.789C683.518 204.582 678.704 228.427 661.404 240.231C641.996 253.473 614.156 247.924 600.182 229.484C584.669 209.012 590.621 180.223 611.741 166.136C634.986 150.634 668.062 157.346 684.505 179.45C702.468 203.597 695.376 237.337 670.434 253.702C643.356 271.469 605.038 263.591 586.128 237.823C565.712 210.001 573.945 171.307 602.712 152.665C633.622 132.633 677.184 141.676 698.559 171.111C721.429 202.605 712.054 246.255 679.463 267.174C644.722 289.473 595.913 279.263 572.075 246.162C546.749 210.995 557.266 162.387 593.682 139.193C632.254 114.627 686.312 126.003 712.612 162.772C717.826 170.06 721.827 178.106 724.441 186.526" stroke="white" stroke-opacity="0.45" stroke-width="0.999998"></path>
<path d="M774.653 254.983C773.101 256.882 771.214 253.991 771.356 252.605C771.743 248.847 776.62 247.604 779.809 248.667C785.515 250.57 787.024 257.277 784.541 262.117C780.897 269.219 771.256 271.113 764.339 267.613C755.12 262.948 752.968 251.434 758.172 243.092C764.721 232.595 779.573 229.999 790.122 236.037C802.899 243.35 805.7 259.821 797.725 271.629C788.327 285.545 768.187 288.846 754.026 280.243C737.677 270.312 734.225 248.843 744.988 233.58C757.217 216.237 782.671 212.23 800.435 223.407C820.365 235.946 824.467 262.429 810.909 281.142C795.857 301.916 765.077 306.631 743.713 292.874C720.201 277.733 715.446 246.227 731.804 224.067C749.674 199.859 785.788 194.436 810.749 210.776C837.847 228.516 843.254 265.05 824.094 290.654C803.407 318.298 761.956 324.43 733.4 305.504C702.715 285.168 696.656 243.603 718.619 214.555C742.12 183.474 788.911 176.633 821.062 198.146C855.334 221.077 862.046 267.675 837.278 300.166C810.964 334.685 758.832 342.234 723.087 318.135C685.226 292.609 677.861 240.976 705.435 205.043C710.901 197.92 717.542 191.604 725.037 186.383" stroke="white" stroke-opacity="0.45" stroke-width="0.999998"></path>
<path d="M745.004 105.832C747.541 105.618 746.558 108.882 745.377 109.723C742.176 112.002 737.9 109.47 736.571 106.543C734.194 101.307 738.418 95.7197 743.886 94.1586C751.909 91.8677 759.922 97.2537 761.87 104.41C764.466 113.947 756.918 123.236 746.868 125.287C734.221 127.869 722.129 119.353 719.705 107.965C716.77 94.173 727.756 81.0772 742.394 78.5942C759.645 75.6681 775.87 87.364 778.735 102.987C782.043 121.025 767.589 137.957 748.36 140.852C726.51 144.141 706.132 129.248 702.84 109.387C699.146 87.1069 717.082 66.3278 740.903 63.0298C767.349 59.3685 791.889 77.4667 795.601 101.565C799.687 128.087 778.265 152.72 749.851 156.416C718.809 160.454 690.103 139.147 685.974 110.81C681.492 80.0471 706.405 51.5569 739.411 47.4654C775.048 43.048 807.925 67.5676 812.467 100.143C817.348 135.146 788.942 167.496 751.342 171.981C711.111 176.779 674.063 149.046 669.108 112.232C663.827 72.9891 695.727 36.7782 737.92 31.9011C782.746 26.7196 823.967 57.6678 829.333 98.7207C835.015 142.203 799.62 182.277 752.834 187.545C743.56 188.589 734.121 188.274 724.96 186.626" stroke="white" stroke-opacity="0.45" stroke-width="0.999998"></path>
<path d="M437.103 780.261C437.715 777.928 440.696 779.848 441.161 781.171C442.422 784.756 438.466 787.765 435.071 788.016C428.999 788.466 424.725 782.911 424.93 777.532C425.23 769.638 433.293 764.205 441.168 764.751C451.664 765.479 458.597 775.183 457.393 784.81C455.878 796.924 443.318 804.999 431.006 803.527C416.096 801.743 406.433 787.754 408.698 773.893C411.367 757.559 428.493 746.809 445.233 749.24C464.559 752.048 476.971 770.358 473.625 788.449C469.823 809.004 448.107 822.44 426.942 819.037C403.197 815.219 388.029 792.573 392.466 770.254C397.392 745.476 423.708 729.349 449.297 733.73C477.46 738.552 495.389 765.542 489.857 792.088C483.812 821.088 452.89 839.911 422.877 834.547C390.295 828.725 369.603 797.387 376.234 766.615C383.394 733.391 418.926 711.872 453.362 718.22C490.364 725.04 513.82 760.729 506.088 795.726C497.815 833.174 457.671 857.391 418.813 850.058C377.391 842.241 351.169 802.2 360.003 762.976C369.388 721.305 414.146 694.389 457.427 702.709C503.269 711.522 532.257 755.917 522.32 799.365C520.35 807.978 516.951 816.303 512.295 823.955" stroke="white" stroke-opacity="0.24" stroke-width="0.999998"></path>
<path d="M494.662 905.689C492.117 905.972 493.024 902.678 494.191 901.804C497.353 899.435 501.716 901.853 503.124 904.747C505.643 909.923 501.534 915.633 496.075 917.345C488.064 919.857 479.875 914.684 477.739 907.573C474.893 898.096 482.253 888.591 492.307 886.263C504.96 883.333 517.328 891.528 520.047 902.862C523.339 916.59 512.617 930 497.959 932.886C480.686 936.286 464.083 925.02 460.816 909.458C457.045 891.49 471.16 874.145 490.423 870.722C512.312 866.832 533.169 881.185 536.97 900.978C541.234 923.182 523.714 944.474 499.843 948.427C473.342 952.814 448.221 935.366 443.893 911.342C439.13 884.903 460.061 859.657 488.539 855.181C519.652 850.291 549.042 870.838 553.893 899.093C559.16 929.768 534.814 958.97 501.727 963.968C466.004 969.363 432.342 945.714 426.97 913.227C421.198 878.318 448.96 845.157 486.655 839.64C526.989 833.737 564.925 860.489 570.816 897.209C577.096 936.351 545.915 973.474 503.611 979.508C458.668 985.92 416.455 956.063 410.047 915.111C403.259 871.735 437.859 830.651 484.772 824.099C494.07 822.8 503.569 822.858 512.821 824.258" stroke="white" stroke-opacity="0.24" stroke-width="0.999998"></path>
<path d="M588.766 781.365C590.702 782.926 587.503 784.546 586.031 784.339C582.042 783.775 581.005 779.122 582.33 776.179C584.701 770.914 591.951 769.852 596.97 772.445C604.336 776.251 605.785 785.419 601.637 791.738C596.108 800.161 583.689 801.571 575.092 796.232C564.274 789.514 562.386 775.406 569.459 765.806C578.025 754.179 595.776 752.422 607.909 760.552C622.207 770.132 624.533 789.25 614.508 802.111C602.933 816.959 579.808 819.061 564.153 808.125C546.365 795.7 543.599 771.546 556.588 755.433C571.159 737.357 599.676 734.909 618.848 748.658C640.132 763.922 643.336 793.123 627.379 812.484C609.817 833.792 575.899 836.585 553.214 820.019C528.431 801.921 524.788 767.666 543.717 745.06C564.266 720.519 603.591 717.38 629.787 736.765C658.07 757.694 662.153 797.007 640.25 822.857C616.716 850.633 571.981 854.118 542.275 831.912C510.49 808.153 505.968 763.78 530.845 734.687C557.364 703.675 607.511 699.844 640.726 724.871C676.013 751.46 680.975 800.894 653.121 833.23C623.62 867.479 568.059 871.655 531.336 843.806C524.057 838.286 517.709 831.703 512.58 824.375" stroke="white" stroke-opacity="0.24" stroke-width="0.999998"></path>
<path d="M392.185 443.297C393.362 445.422 389.778 445.81 388.501 445.104C385.042 443.188 385.902 438.506 388.274 436.236C392.516 432.174 399.619 433.719 403.236 437.878C408.545 443.983 406.301 453.001 400.008 457.421C391.619 463.312 379.612 460.287 373.767 452.329C366.411 442.315 370.178 428.557 380.451 422.112C392.893 414.306 409.954 418.87 417.971 430.653C427.418 444.539 422.1 463.102 407.83 471.544C391.356 481.291 369.203 475.172 359.032 459.554C347.476 441.808 354.356 418.416 372.629 407.988C393.128 396.29 420.389 403.97 432.705 423.428C446.378 445.029 437.932 473.261 415.653 485.668C391.133 499.323 358.755 490.078 344.298 466.78C328.504 441.326 338.519 408.248 364.806 393.865C393.344 378.25 430.845 389.06 447.44 416.202C465.357 445.507 453.772 483.434 423.475 499.792C390.92 517.368 348.294 504.991 329.563 474.005C309.521 440.85 322.676 398.072 356.984 379.741C393.555 360.201 441.308 374.147 462.174 408.977C484.343 445.981 469.617 493.613 431.298 513.915C390.711 535.419 337.829 519.906 314.829 481.23C310.269 473.564 306.984 465.236 305.115 456.643" stroke="white" stroke-opacity="0.29" stroke-width="0.999998"></path>
<path d="M236.718 404.11C237.645 401.879 240.315 404.16 240.589 405.529C241.333 409.239 237.018 411.712 233.64 411.527C227.597 411.197 224.158 405.152 225.107 399.853C226.499 392.077 235.195 387.729 242.876 389.275C253.113 391.337 258.594 401.829 256.072 411.205C252.897 423.004 239.404 429.393 227.483 426.362C213.044 422.691 205.469 407.609 209.624 394.177C214.521 378.348 232.882 369.895 249.033 374.441C267.679 379.689 277.362 399.4 271.554 416.881C264.955 436.743 241.7 447.269 221.325 441.197C198.468 434.384 186.672 410.028 194.141 388.501C202.433 364.603 230.593 352 255.19 359.606C282.26 367.978 296.172 396.986 287.037 422.557C277.057 450.493 243.986 465.175 215.168 456.031C183.884 446.105 167.855 412.44 178.659 382.825C190.324 350.851 228.31 334.089 261.347 344.772C296.846 356.251 314.995 394.576 302.519 428.233C289.171 464.245 246.267 483.089 209.011 470.866C169.297 457.836 149.029 414.848 163.176 377.149C178.207 337.098 226.03 316.171 267.504 329.937C311.434 344.517 333.823 392.168 318.002 433.909C314.866 442.182 310.362 449.99 304.713 456.97" stroke="white" stroke-opacity="0.29" stroke-width="0.999998"></path>
<path d="M296.853 538.82C294.373 539.365 294.861 536.003 295.906 535.016C298.737 532.339 303.347 534.284 305.097 537.007C308.229 541.88 304.877 547.967 299.695 550.231C292.09 553.554 283.356 549.274 280.364 542.444C276.376 533.341 282.47 523.152 292.117 519.8C304.256 515.582 317.494 522.426 321.586 533.383C326.542 546.655 317.61 561.065 303.484 565.447C286.836 570.611 269.033 561.162 263.875 546.068C257.92 528.642 269.717 509.977 288.328 504.584C309.474 498.456 331.865 510.526 338.075 529.759C345.043 551.336 330.37 574.268 307.273 580.663C281.63 587.763 254.642 573.067 247.386 549.692C239.4 523.967 256.953 496.761 284.539 489.368C314.676 481.291 346.267 498.618 354.564 526.135C363.573 556.007 343.137 587.491 311.061 595.879C276.431 604.935 240.234 584.975 230.897 553.316C220.864 519.298 244.185 483.533 280.75 474.152C319.874 464.115 360.679 486.709 371.053 522.511C382.113 560.675 355.905 600.722 314.85 611.095C271.234 622.115 225.819 596.886 214.408 556.941C202.321 514.631 231.416 470.3 276.961 458.937C285.988 456.684 295.382 455.756 304.698 456.184" stroke="white" stroke-opacity="0.29" stroke-width="0.999998"></path>
<path d="M794.634 737.3C795.672 739.487 792.07 739.671 790.841 738.893C787.511 736.784 788.672 732.159 791.185 730.028C795.682 726.216 802.671 728.162 806.014 732.52C810.92 738.916 808.099 747.79 801.532 751.843C792.78 757.245 780.989 753.541 775.668 745.265C768.971 734.85 773.618 721.332 784.287 715.484C797.21 708.402 813.944 713.93 821.187 726.148C829.723 740.547 823.217 758.773 808.43 766.387C791.358 775.177 769.64 767.806 760.495 751.637C750.103 733.265 758.479 710.308 777.39 700.941C798.605 690.432 825.321 699.653 836.36 719.776C848.616 742.117 838.366 769.815 815.328 780.93C789.973 793.162 758.25 782.089 745.321 758.009C731.197 731.702 743.325 699.256 770.492 686.397C799.984 672.438 836.718 685.366 851.534 713.404C867.529 743.676 853.522 780.873 822.226 795.474C788.598 811.162 746.848 796.378 730.148 764.381C712.28 730.145 728.168 688.195 763.594 671.854C801.357 654.434 848.123 671.076 866.707 707.032C886.45 745.231 868.681 791.936 829.124 810.017C787.225 829.168 735.441 810.669 714.975 770.753C710.919 762.842 708.176 754.342 706.864 745.658" stroke="white" stroke-opacity="0.28" stroke-width="0.999998"></path>
<path d="M641.979 689.323C643.047 687.148 645.565 689.578 645.751 690.96C646.255 694.705 641.788 696.928 638.428 696.551C632.417 695.877 629.374 689.647 630.663 684.412C632.554 676.729 641.514 672.885 649.081 674.866C659.166 677.507 663.962 688.293 660.839 697.508C656.91 709.104 643.03 714.712 631.326 711.007C617.151 706.521 610.561 691.034 615.574 677.864C621.483 662.343 640.355 654.952 656.183 660.41C674.457 666.711 682.851 686.938 675.928 704.056C668.061 723.506 644.17 732.687 624.224 725.464C601.848 717.361 591.644 692.377 600.486 671.316C610.303 647.934 639.223 636.959 663.285 645.954C689.766 655.853 701.782 685.601 691.016 710.604C679.254 737.919 645.297 750.689 617.122 739.92C586.535 728.229 572.705 693.712 585.398 664.768C599.102 633.518 638.099 618.951 670.387 631.497C705.081 644.979 720.726 684.268 706.104 717.152C690.459 752.337 646.42 768.701 610.02 754.377C571.219 739.107 553.758 695.043 570.31 658.22C587.894 619.099 636.977 600.937 677.489 617.041C720.398 634.098 739.674 682.937 721.193 723.7C717.529 731.779 712.53 739.316 706.442 745.961" stroke="white" stroke-opacity="0.28" stroke-width="0.999998"></path>
<path d="M693.321 827.212C690.81 827.615 691.514 824.288 692.621 823.361C695.619 820.851 700.095 823.055 701.667 825.874C704.479 830.915 700.74 836.801 695.422 838.765C687.617 841.648 679.175 836.878 676.629 829.89C673.235 820.576 679.974 810.753 689.819 807.958C702.209 804.439 714.981 812.025 718.359 823.196C722.451 836.725 712.606 850.6 698.223 854.169C681.274 858.375 664.112 847.928 659.936 832.568C655.115 814.834 668.094 796.876 687.018 792.554C708.521 787.643 730.092 800.966 735.052 820.518C740.615 842.452 724.492 864.506 701.025 869.573C674.972 875.198 648.98 858.99 643.244 835.245C636.931 809.113 656.205 782.957 684.217 777.15C714.819 770.806 745.235 789.902 751.744 817.84C758.81 848.171 736.383 878.432 703.826 884.977C668.675 892.042 633.832 870.056 626.552 837.923C618.73 803.395 644.313 769.026 681.415 761.746C721.114 753.957 760.388 778.835 768.436 815.163C777.016 853.887 748.275 892.367 706.627 900.38C662.381 908.894 618.676 881.123 609.86 840.601C600.522 797.68 632.421 755.089 678.614 746.342C687.77 744.609 697.206 744.218 706.477 745.176" stroke="white" stroke-opacity="0.28" stroke-width="0.999998"></path>
<path d="M1352.19 121.67C1353.36 123.795 1349.78 124.183 1348.5 123.477C1345.04 121.561 1345.9 116.879 1348.27 114.609C1352.52 110.548 1359.62 112.092 1363.24 116.251C1368.54 122.356 1366.3 131.374 1360.01 135.794C1351.62 141.685 1339.61 138.66 1333.77 130.702C1326.41 120.688 1330.18 106.93 1340.45 100.485C1352.89 92.6787 1369.95 97.2431 1377.97 109.026C1387.42 122.912 1382.1 141.475 1367.83 149.918C1351.36 159.665 1329.2 153.545 1319.03 137.927C1307.48 120.181 1314.36 96.789 1332.63 86.3613C1353.13 74.663 1380.39 82.3435 1392.71 101.801C1406.38 123.402 1397.93 151.634 1375.65 164.041C1351.13 177.696 1318.75 168.451 1304.3 145.153C1288.5 119.699 1298.52 86.6213 1324.81 72.2377C1353.34 56.6228 1390.84 67.4334 1407.44 94.5754C1425.36 123.88 1413.77 161.807 1383.48 178.165C1350.92 195.742 1308.29 183.364 1289.56 152.378C1269.52 119.223 1282.68 76.4448 1316.98 58.1141C1353.56 38.5742 1401.31 52.5196 1422.17 87.3501C1444.34 124.354 1429.62 171.986 1391.3 192.288C1350.71 213.792 1297.83 198.279 1274.83 159.603C1270.27 151.937 1266.98 143.609 1265.11 135.016" stroke="white" stroke-opacity="0.28" stroke-width="0.999998"></path>
<path d="M1196.72 82.4831C1197.64 80.2517 1200.31 82.533 1200.59 83.902C1201.33 87.612 1197.02 90.0851 1193.64 89.9004C1187.6 89.5699 1184.16 83.5251 1185.11 78.2261C1186.5 70.4497 1195.2 66.1018 1202.88 67.6484C1213.11 69.7098 1218.59 80.2018 1216.07 89.578C1212.9 101.377 1199.4 107.766 1187.48 104.735C1173.04 101.065 1165.47 85.9819 1169.62 72.5502C1174.52 56.7214 1192.88 48.2683 1209.03 52.8138C1227.68 58.0618 1237.36 77.7732 1231.55 95.2539C1224.96 115.117 1201.7 125.642 1181.33 119.57C1158.47 112.757 1146.67 88.4009 1154.14 66.8742C1162.43 42.9756 1190.59 30.3728 1215.19 37.9792C1242.26 46.3506 1256.17 75.3589 1247.04 100.93C1237.06 128.866 1203.99 143.548 1175.17 134.404C1143.88 124.478 1127.85 90.8126 1138.66 61.1983C1150.32 29.2244 1188.31 12.4617 1221.35 23.1446C1256.85 34.6235 1274.99 72.9488 1262.52 106.606C1249.17 142.618 1206.27 161.462 1169.01 149.239C1129.3 136.209 1109.03 93.2215 1123.18 55.5224C1138.21 15.4709 1186.03 -5.45552 1227.5 8.30997C1271.43 22.8902 1293.82 70.5407 1278 112.282C1274.87 120.555 1270.36 128.363 1264.71 135.343" stroke="white" stroke-opacity="0.28" stroke-width="0.999998"></path>
<path d="M1256.85 217.193C1254.37 217.738 1254.86 214.376 1255.91 213.389C1258.74 210.712 1263.35 212.657 1265.1 215.381C1268.23 220.253 1264.88 226.34 1259.69 228.604C1252.09 231.927 1243.36 227.647 1240.36 220.817C1236.38 211.714 1242.47 201.525 1252.12 198.173C1264.26 193.955 1277.49 200.799 1281.59 211.756C1286.54 225.028 1277.61 239.438 1263.48 243.82C1246.84 248.984 1229.03 239.535 1223.87 224.441C1217.92 207.015 1229.72 188.35 1248.33 182.957C1269.47 176.829 1291.87 188.899 1298.08 208.132C1305.04 229.709 1290.37 252.641 1267.27 259.036C1241.63 266.136 1214.64 251.44 1207.39 228.065C1199.4 202.34 1216.95 175.134 1244.54 167.741C1274.68 159.664 1306.27 176.991 1314.56 204.508C1323.57 234.38 1303.14 265.864 1271.06 274.252C1236.43 283.308 1200.23 263.349 1190.9 231.689C1180.86 197.671 1204.19 161.906 1240.75 152.525C1279.87 142.488 1320.68 165.082 1331.05 200.884C1342.11 239.048 1315.9 279.095 1274.85 289.468C1231.23 300.488 1185.82 275.259 1174.41 235.314C1162.32 193.004 1191.42 148.673 1236.96 137.31C1245.99 135.057 1255.38 134.129 1264.7 134.557" stroke="white" stroke-opacity="0.28" stroke-width="0.999998"></path>
<path d="M237.185 793.137C238.362 795.262 234.778 795.65 233.502 794.943C230.042 793.028 230.902 788.346 233.274 786.075C237.516 782.014 244.619 783.559 248.236 787.718C253.545 793.822 251.301 802.841 245.008 807.261C236.619 813.152 224.612 810.126 218.767 802.169C211.411 792.155 215.178 778.397 225.451 771.952C237.893 764.145 254.954 768.71 262.971 780.493C272.419 794.379 267.1 812.942 252.83 821.384C236.356 831.131 214.203 825.012 204.032 809.394C192.476 791.648 199.356 768.256 217.629 757.828C238.128 746.13 265.389 753.81 277.705 773.267C291.378 794.869 282.932 823.101 260.653 835.508C236.133 849.163 203.755 839.918 189.298 816.619C173.504 791.166 183.519 758.088 209.806 743.705C238.344 728.09 275.845 738.9 292.44 766.042C310.357 795.347 298.773 833.274 268.475 849.632C235.92 867.208 193.294 854.831 174.563 823.845C154.521 790.69 167.676 747.912 201.984 729.581C238.555 710.041 286.308 723.986 307.174 758.817C329.343 795.821 314.617 843.453 276.298 863.755C235.711 885.259 182.829 869.746 159.829 831.07C155.27 823.404 151.984 815.076 150.115 806.483" stroke="white" stroke-opacity="0.33" stroke-width="0.999998"></path>
<path d="M81.7185 753.95C82.6447 751.719 85.3146 754 85.5891 755.369C86.3331 759.079 82.0184 761.552 78.6399 761.367C72.5966 761.037 69.1578 754.992 70.1066 749.693C71.4989 741.916 80.195 737.569 87.8757 739.115C98.1127 741.177 103.594 751.669 101.072 761.045C97.897 772.844 84.4043 779.232 72.4827 776.202C58.0441 772.531 50.4686 757.449 54.624 744.017C59.521 728.188 77.8823 719.735 94.0328 724.281C112.679 729.529 122.362 749.24 116.554 766.721C109.955 786.583 86.7004 797.109 66.3255 791.036C43.468 784.224 31.6724 759.868 39.1415 738.341C47.4335 714.442 75.5933 701.84 100.19 709.446C127.26 717.817 141.172 746.826 132.037 772.397C122.057 800.332 88.9857 815.015 60.1684 805.871C28.8841 795.945 12.8546 762.279 23.6589 732.665C35.3241 700.691 73.3103 683.929 106.347 694.611C141.846 706.09 159.995 744.416 147.519 778.073C134.171 814.085 91.2672 832.929 54.0112 820.706C14.2972 807.675 -5.97116 764.688 8.17634 726.989C23.2066 686.938 71.0297 666.011 112.504 679.777C156.434 694.357 178.823 742.007 163.002 783.748C159.866 792.022 155.362 799.829 149.713 806.81" stroke="white" stroke-opacity="0.33" stroke-width="0.999998"></path>
<path d="M141.853 888.659C139.373 889.204 139.861 885.843 140.906 884.855C143.737 882.179 148.347 884.124 150.097 886.847C153.229 891.719 149.877 897.807 144.695 900.071C137.09 903.394 128.356 899.113 125.364 892.284C121.376 883.18 127.47 872.991 137.117 869.64C149.256 865.422 162.494 872.265 166.586 883.223C171.542 896.494 162.61 910.905 148.484 915.287C131.837 920.451 114.033 911.002 108.875 895.908C102.92 878.481 114.717 859.817 133.328 854.424C154.474 848.296 176.865 860.366 183.075 879.599C190.043 901.176 175.37 924.107 152.273 930.503C126.63 937.603 99.6419 922.906 92.3859 899.532C84.4001 873.807 101.953 846.601 129.539 839.208C159.676 831.131 191.267 848.458 199.564 875.975C208.573 905.847 188.137 937.331 156.062 945.719C121.431 954.775 85.234 934.815 75.8969 903.156C65.8639 869.138 89.1852 833.373 125.75 823.992C164.874 813.955 205.679 836.548 216.053 872.35C227.113 910.515 200.905 950.562 159.85 960.934C116.234 971.954 70.8193 946.726 59.4079 906.78C47.321 864.471 76.4163 820.14 121.961 808.776C130.988 806.524 140.382 805.596 149.698 806.024" stroke="white" stroke-opacity="0.33" stroke-width="0.999998"></path>
</g>
<defs>
<filter id="filter0_f_5_258" x="506.071" y="143.233" width="96.2926" height="89.2171" filterUnits="userSpaceOnUse" color-interpolation-filters="sRGB">
<feFlood flood-opacity="0" result="BackgroundImageFix"></feFlood>
<feBlend mode="normal" in="SourceGraphic" in2="BackgroundImageFix" result="shape"></feBlend>
<feGaussianBlur stdDeviation="2.5" result="effect1_foregroundBlur_5_258"></feGaussianBlur>
</filter>
<filter id="filter1_f_5_258" x="1095.07" y="343.544" width="96.2926" height="89.2171" filterUnits="userSpaceOnUse" color-interpolation-filters="sRGB">
<feFlood flood-opacity="0" result="BackgroundImageFix"></feFlood>
<feBlend mode="normal" in="SourceGraphic" in2="BackgroundImageFix" result="shape"></feBlend>
<feGaussianBlur stdDeviation="2.5" result="effect1_foregroundBlur_5_258"></feGaussianBlur>
</filter>
<filter id="filter2_f_5_258" x="398.071" y="636.018" width="96.2926" height="89.2171" filterUnits="userSpaceOnUse" color-interpolation-filters="sRGB">
<feFlood flood-opacity="0" result="BackgroundImageFix"></feFlood>
<feBlend mode="normal" in="SourceGraphic" in2="BackgroundImageFix" result="shape"></feBlend>
<feGaussianBlur stdDeviation="2.5" result="effect1_foregroundBlur_5_258"></feGaussianBlur>
</filter>
<filter id="filter3_f_5_258" x="629.071" y="436.647" width="96.2926" height="89.2171" filterUnits="userSpaceOnUse" color-interpolation-filters="sRGB">
<feFlood flood-opacity="0" result="BackgroundImageFix"></feFlood>
<feBlend mode="normal" in="SourceGraphic" in2="BackgroundImageFix" result="shape"></feBlend>
<feGaussianBlur stdDeviation="2.5" result="effect1_foregroundBlur_5_258"></feGaussianBlur>
</filter>
<filter id="filter4_f_5_258" x="196.115" y="35.8238" width="178.831" height="163.379" filterUnits="userSpaceOnUse" color-interpolation-filters="sRGB">
<feFlood flood-opacity="0" result="BackgroundImageFix"></feFlood>
<feBlend mode="normal" in="SourceGraphic" in2="BackgroundImageFix" result="shape"></feBlend>
<feGaussianBlur stdDeviation="2.5" result="effect1_foregroundBlur_5_258"></feGaussianBlur>
</filter>
<filter id="filter5_f_5_258" x="824.986" y="586.704" width="178.422" height="163.792" filterUnits="userSpaceOnUse" color-interpolation-filters="sRGB">
<feFlood flood-opacity="0" result="BackgroundImageFix"></feFlood>
<feBlend mode="normal" in="SourceGraphic" in2="BackgroundImageFix" result="shape"></feBlend>
<feGaussianBlur stdDeviation="2.5" result="effect1_foregroundBlur_5_258"></feGaussianBlur>
</filter>
<filter id="filter6_f_5_258" x="1110.99" y="559.431" width="178.422" height="163.792" filterUnits="userSpaceOnUse" color-interpolation-filters="sRGB">
<feFlood flood-opacity="0" result="BackgroundImageFix"></feFlood>
<feBlend mode="normal" in="SourceGraphic" in2="BackgroundImageFix" result="shape"></feBlend>
<feGaussianBlur stdDeviation="2.5" result="effect1_foregroundBlur_5_258"></feGaussianBlur>
</filter>
<filter id="filter7_f_5_258" x="870.115" y="129.867" width="178.831" height="163.379" filterUnits="userSpaceOnUse" color-interpolation-filters="sRGB">
<feFlood flood-opacity="0" result="BackgroundImageFix"></feFlood>
<feBlend mode="normal" in="SourceGraphic" in2="BackgroundImageFix" result="shape"></feBlend>
<feGaussianBlur stdDeviation="2.5" result="effect1_foregroundBlur_5_258"></feGaussianBlur>
</filter>
<filter id="filter8_f_5_258" x="363.115" y="157.139" width="178.831" height="163.379" filterUnits="userSpaceOnUse" color-interpolation-filters="sRGB">
<feFlood flood-opacity="0" result="BackgroundImageFix"></feFlood>
<feBlend mode="normal" in="SourceGraphic" in2="BackgroundImageFix" result="shape"></feBlend>
<feGaussianBlur stdDeviation="2.5" result="effect1_foregroundBlur_5_258"></feGaussianBlur>
</filter>
<filter id="filter9_f_5_258" x="204.986" y="794.539" width="178.422" height="163.792" filterUnits="userSpaceOnUse" color-interpolation-filters="sRGB">
<feFlood flood-opacity="0" result="BackgroundImageFix"></feFlood>
<feBlend mode="normal" in="SourceGraphic" in2="BackgroundImageFix" result="shape"></feBlend>
<feGaussianBlur stdDeviation="2.5" result="effect1_foregroundBlur_5_258"></feGaussianBlur>
</filter>
<filter id="filter10_f_5_258" x="-35.8852" y="364.974" width="178.831" height="163.379" filterUnits="userSpaceOnUse" color-interpolation-filters="sRGB">
<feFlood flood-opacity="0" result="BackgroundImageFix"></feFlood>
<feBlend mode="normal" in="SourceGraphic" in2="BackgroundImageFix" result="shape"></feBlend>
<feGaussianBlur stdDeviation="2.5" result="effect1_foregroundBlur_5_258"></feGaussianBlur>
</filter>
<filter id="filter11_f_5_258" x="479.986" y="279.183" width="178.422" height="163.792" filterUnits="userSpaceOnUse" color-interpolation-filters="sRGB">
<feFlood flood-opacity="0" result="BackgroundImageFix"></feFlood>
<feBlend mode="normal" in="SourceGraphic" in2="BackgroundImageFix" result="shape"></feBlend>
<feGaussianBlur stdDeviation="2.5" result="effect1_foregroundBlur_5_258"></feGaussianBlur>
</filter>
<filter id="filter12_f_5_258" x="408.596" y="431.553" width="194.084" height="177.929" filterUnits="userSpaceOnUse" color-interpolation-filters="sRGB">
<feFlood flood-opacity="0" result="BackgroundImageFix"></feFlood>
<feBlend mode="normal" in="SourceGraphic" in2="BackgroundImageFix" result="shape"></feBlend>
<feGaussianBlur stdDeviation="2.5" result="effect1_foregroundBlur_5_258"></feGaussianBlur>
</filter>
<filter id="filter13_f_5_258" x="849.596" y="368.308" width="194.084" height="177.929" filterUnits="userSpaceOnUse" color-interpolation-filters="sRGB">
<feFlood flood-opacity="0" result="BackgroundImageFix"></feFlood>
<feBlend mode="normal" in="SourceGraphic" in2="BackgroundImageFix" result="shape"></feBlend>
<feGaussianBlur stdDeviation="2.5" result="effect1_foregroundBlur_5_258"></feGaussianBlur>
</filter>
<filter id="filter14_f_5_258" x="1077.07" y="233.514" width="96.2926" height="89.2171" filterUnits="userSpaceOnUse" color-interpolation-filters="sRGB">
<feFlood flood-opacity="0" result="BackgroundImageFix"></feFlood>
<feBlend mode="normal" in="SourceGraphic" in2="BackgroundImageFix" result="shape"></feBlend>
<feGaussianBlur stdDeviation="2.5" result="effect1_foregroundBlur_5_258"></feGaussianBlur>
</filter>
<filter id="filter15_f_5_258" x="406.071" y="815.64" width="96.2926" height="89.2171" filterUnits="userSpaceOnUse" color-interpolation-filters="sRGB">
<feFlood flood-opacity="0" result="BackgroundImageFix"></feFlood>
<feBlend mode="normal" in="SourceGraphic" in2="BackgroundImageFix" result="shape"></feBlend>
<feGaussianBlur stdDeviation="2.5" result="effect1_foregroundBlur_5_258"></feGaussianBlur>
</filter>
<filter id="filter16_f_5_258" x="791.029" y="804.884" width="178.673" height="163.791" filterUnits="userSpaceOnUse" color-interpolation-filters="sRGB">
<feFlood flood-opacity="0" result="BackgroundImageFix"></feFlood>
<feBlend mode="normal" in="SourceGraphic" in2="BackgroundImageFix" result="shape"></feBlend>
<feGaussianBlur stdDeviation="2.5" result="effect1_foregroundBlur_5_258"></feGaussianBlur>
</filter>
<filter id="filter17_f_5_258" x="958.292" y="803.801" width="179.083" height="163.379" filterUnits="userSpaceOnUse" color-interpolation-filters="sRGB">
<feFlood flood-opacity="0" result="BackgroundImageFix"></feFlood>
<feBlend mode="normal" in="SourceGraphic" in2="BackgroundImageFix" result="shape"></feBlend>
<feGaussianBlur stdDeviation="2.5" result="effect1_foregroundBlur_5_258"></feGaussianBlur>
</filter>
<filter id="filter18_f_5_258" x="37.2559" y="459.302" width="343.879" height="321.624" filterUnits="userSpaceOnUse" color-interpolation-filters="sRGB">
<feFlood flood-opacity="0" result="BackgroundImageFix"></feFlood>
<feBlend mode="normal" in="SourceGraphic" in2="BackgroundImageFix" result="shape"></feBlend>
<feGaussianBlur stdDeviation="2.5" result="effect1_foregroundBlur_5_258"></feGaussianBlur>
</filter>
<filter id="filter19_f_5_258" x="916.113" y="545.056" width="433.015" height="375.804" filterUnits="userSpaceOnUse" color-interpolation-filters="sRGB">
<feFlood flood-opacity="0" result="BackgroundImageFix"></feFlood>
<feBlend mode="normal" in="SourceGraphic" in2="BackgroundImageFix" result="shape"></feBlend>
<feGaussianBlur stdDeviation="2.5" result="effect1_foregroundBlur_5_258"></feGaussianBlur>
</filter>
<filter id="filter20_f_5_258" x="810.113" y="-13.5596" width="433.015" height="375.804" filterUnits="userSpaceOnUse" color-interpolation-filters="sRGB">
<feFlood flood-opacity="0" result="BackgroundImageFix"></feFlood>
<feBlend mode="normal" in="SourceGraphic" in2="BackgroundImageFix" result="shape"></feBlend>
<feGaussianBlur stdDeviation="2.5" result="effect1_foregroundBlur_5_258"></feGaussianBlur>
</filter>
<clipPath id="clip0_5_258">
<rect width="1440" height="963" fill="white"></rect>
</clipPath>
</defs>
</svg>
